# xmcd CD database file
#
# Track frame offsets:
#	150
#	11484
#	28853
#	44408
#	68294
#	91940
#	110415
#	134336
#	147917
#	170891
#	189149
#
# Disc length: 2834 seconds
#
# Revision: 2
# Processed by: cddbd v1.5.1PL0 Copyright (c) Steve Scherf et al.
# Submitted via: CDex 1.51
#
DISCID=8e0b100b
DTITLE=Hank Davison Band - Ten Years and more...Live 1990 CD 1
DYEAR=1990
DGENRE=Blues
TTITLE0=Introduction
TTITLE1=Come on and say yeah
TTITLE2=Leather angel
TTITLE3=It hurts me too
TTITLE4=Good Golly Miss Molly
TTITLE5=Rhythem´n blues
TTITLE6=Roadhouse blues
TTITLE7=Jailhouse Rock
TTITLE8=Berry Brown and Band - Can you dig it
TTITLE9=Proud Mary
TTITLE10=Circles
EXTD=YEAR: 1990
EXTT0=
EXTT1=
EXTT2=
EXTT3=
EXTT4=
EXTT5=
EXTT6=
EXTT7=
EXTT8=
EXTT9=
EXTT10=
PLAYORDER=
